<svg xmlns="http://www.w3.org/2000/svg" width="736" height="417" fill="none" viewBox="0 0 736 417"><rect width="246.319" height="225.792" x=".577" y="190.545" fill="#323237"/><rect width="246.319" height="225.792" x="488.729" y="190.545" fill="#78787D"/><rect width="246.319" height="225.792" x="246.896" y="190.545" fill="#505055"/><rect width="246.319" height="207.749" x=".577" y=".838" fill="#243A5E"/><rect width="246.319" height="207.749" x="488.729" y=".838" fill="#156AB3"/><rect width="246.319" height="207.749" x="246.896" y=".838" fill="#1D4A79"/><path fill="#fff" d="M169.844 96.9518H151.523V97.8284H169.844V96.9518Z"/><path fill="#fff" d="M168.879 93.8837L174.84 97.39L168.879 100.896V93.8837Z"/><path fill="#fff" d="M174.577 103.614H156.257V104.49H174.577V103.614Z"/><path fill="#fff" d="M157.221 107.558L151.173 104.052L157.221 100.546V107.558Z"/><path fill="#fff" d="M91.1271 96.9518H72.8066V97.8284H91.1271V96.9518Z"/><path fill="#fff" d="M90.1631 93.8837L96.2115 97.39L90.1631 100.896V93.8837Z"/><path fill="#fff" d="M95.861 103.614H77.5405V104.49H95.861V103.614Z"/><path fill="#fff" d="M78.5923 107.558L72.5439 104.052L78.5923 100.546V107.558Z"/><path fill="#fff" d="M131.801 91.1663C131.45 90.8157 130.924 90.8157 130.574 91.1663C130.398 91.3416 130.311 91.5169 130.311 91.7799C130.311 92.0429 130.398 92.2182 130.574 92.3935L138.55 100.283C138.901 100.633 138.901 101.159 138.55 101.598L130.398 109.75C130.048 110.1 130.048 110.626 130.398 111.065C130.749 111.328 131.275 111.328 131.625 111.065L141.18 101.598C141.443 101.247 141.443 100.721 141.18 100.283L131.801 91.1663Z"/><path fill="#fff" d="M108.922 101.598C108.571 101.247 108.571 100.721 108.922 100.283L116.811 92.3935C116.986 92.2182 117.074 92.0429 117.074 91.7799C117.074 91.5169 116.986 91.3416 116.811 91.1663C116.461 90.8157 115.935 90.8157 115.584 91.1663L106.205 100.283C105.942 100.633 105.942 101.159 106.205 101.598L115.672 111.065C116.022 111.328 116.548 111.328 116.899 111.065C117.249 110.714 117.249 110.188 116.899 109.75L108.922 101.598Z"/><path fill="#fff" d="M118.126 115.711L131.538 96.6888H125.051L131.363 86.9587H126.366H121.808L116.724 101.422L122.947 101.51L118.126 115.711Z"/><path fill="#fff" d="M53.1718 91.1663C52.8212 90.8157 52.2953 90.8157 51.9446 91.1663C51.7693 91.3416 51.6817 91.5169 51.6817 91.7799C51.6817 92.0429 51.7693 92.2182 51.9446 92.3935L59.9215 100.283C60.2721 100.633 60.2721 101.159 59.9215 101.598L51.7693 109.75C51.4187 110.1 51.4187 110.626 51.7693 111.065C52.12 111.328 52.6459 111.328 52.9965 111.065L62.5512 101.598C62.8142 101.247 62.8142 100.721 62.5512 100.283L53.1718 91.1663Z"/><path fill="#fff" d="M30.293 101.598C29.9424 101.247 29.9424 100.721 30.293 100.283L38.1823 92.3935C38.3576 92.2182 38.4452 92.0429 38.4452 91.7799C38.4452 91.5169 38.3576 91.3416 38.1823 91.1663C37.8316 90.8157 37.3057 90.8157 36.955 91.1663L27.5756 100.283C27.3127 100.633 27.3127 101.159 27.5756 101.598L37.0427 111.065C37.3933 111.328 37.9193 111.328 38.2699 111.065C38.6205 110.714 38.6205 110.188 38.2699 109.75L30.293 101.598Z"/><path fill="#fff" d="M39.4096 115.711L52.8213 96.6888H46.3346L52.6459 86.9587H47.7371H43.1789L38.0947 101.335L44.3184 101.422L39.4096 115.711Z"/><path fill="#fff" d="M210.518 91.1663C210.167 90.8157 209.641 90.8157 209.29 91.1663C209.115 91.3416 209.027 91.5169 209.027 91.7799C209.027 92.0429 209.115 92.2182 209.29 92.3935L217.267 100.283C217.618 100.633 217.618 101.159 217.267 101.598L209.115 109.75C208.764 110.1 208.764 110.626 209.115 111.065C209.466 111.328 209.992 111.328 210.342 111.065L219.897 101.598C220.16 101.247 220.16 100.721 219.897 100.283L210.518 91.1663Z"/><path fill="#fff" d="M187.639 101.598C187.288 101.247 187.288 100.721 187.639 100.283L195.528 92.3935C195.703 92.2182 195.791 92.0429 195.791 91.7799C195.791 91.5169 195.703 91.3416 195.528 91.1663C195.177 90.8157 194.651 90.8157 194.301 91.1663L184.921 100.283C184.658 100.633 184.658 101.159 184.921 101.598L194.388 111.065C194.739 111.328 195.265 111.328 195.616 111.065C195.966 110.714 195.966 110.188 195.616 109.75L187.639 101.598Z"/><path fill="#fff" d="M196.843 115.711L210.167 96.6888H203.68L209.992 86.9587H205.083H200.525L195.44 101.335L201.664 101.422L196.843 115.711Z"/><path fill="#fff" d="M140.819 307.172H122.498V308.048H140.819V307.172Z"/><path fill="#fff" d="M139.854 304.192L145.815 307.61L139.854 311.116V304.192Z"/><path fill="#fff" d="M145.553 313.834H127.232V314.71H145.553V313.834Z"/><path fill="#fff" d="M128.196 317.778L122.235 314.272L128.196 310.854V317.778Z"/><path fill="#fff" d="M91.9936 301.036C91.643 300.685 91.117 300.685 90.7664 301.036C90.5911 301.211 90.5034 301.386 90.5034 301.649C90.5034 301.912 90.5911 302.088 90.7664 302.263L98.7433 310.152C99.0939 310.503 99.0939 311.029 98.7433 311.467L90.5911 319.619C90.2405 319.97 90.2405 320.496 90.5911 320.934C90.9417 321.197 91.4677 321.197 91.8183 320.934L101.373 311.467C101.636 311.116 101.636 310.591 101.373 310.152L91.9936 301.036Z"/><path fill="#fff" d="M69.1148 311.555C68.7642 311.204 68.7642 310.678 69.1148 310.24L77.004 302.351C77.1794 302.175 77.267 302 77.267 301.737C77.267 301.474 77.1794 301.299 77.004 301.124C76.6534 300.773 76.1275 300.773 75.7768 301.124L66.3974 310.24C66.1345 310.591 66.1345 311.117 66.3974 311.555L75.8645 321.022C76.2151 321.285 76.7411 321.285 77.0917 321.022C77.4423 320.671 77.4423 320.145 77.0917 319.707L69.1148 311.555Z"/><path fill="#fff" d="M78.2314 325.668L91.643 306.646H85.1563L91.4677 296.916H86.5589H82.0007L76.9165 311.292L83.1402 311.379L78.2314 325.668Z"/><path fill="#fff" d="M180.615 300.51C180.265 300.159 179.739 300.159 179.388 300.51C179.213 300.685 179.125 300.86 179.125 301.123C179.125 301.386 179.213 301.562 179.388 301.737L187.365 309.626C187.716 309.977 187.716 310.503 187.365 310.941L179.213 319.093C178.862 319.444 178.862 319.97 179.213 320.408C179.563 320.671 180.089 320.671 180.44 320.408L189.995 310.941C190.258 310.59 190.258 310.065 189.995 309.626L180.615 300.51Z"/><path fill="#fff" d="M157.737 310.941C157.386 310.59 157.386 310.065 157.737 309.626L165.626 301.737C165.801 301.562 165.889 301.386 165.889 301.123C165.889 300.86 165.801 300.685 165.626 300.51C165.275 300.159 164.75 300.159 164.399 300.51L155.019 309.626C154.757 309.977 154.757 310.503 155.019 310.941L164.487 320.408C164.837 320.671 165.363 320.671 165.714 320.408C166.064 320.058 166.064 319.532 165.714 319.093L157.737 310.941Z"/><path fill="#fff" d="M166.941 325.142L180.353 306.12H173.866L180.178 296.39H175.269H170.711L165.626 310.766L171.85 310.853L166.941 325.142Z"/><path fill="#fff" d="M83.8413 337.94C78.0559 337.94 72.6211 336.099 67.9752 332.68C67.7999 332.505 67.7122 332.242 67.8876 332.067C68.0629 331.891 68.3258 331.804 68.5012 331.979C72.9717 335.31 78.2312 337.063 83.8413 337.063C92.4318 337.063 100.496 332.768 105.23 325.58C105.405 325.405 105.668 325.317 105.843 325.492C106.019 325.668 106.106 325.931 105.931 326.106C101.022 333.557 92.7824 337.94 83.8413 337.94Z"/><path fill="#fff" d="M109.438 317.253H109.35C109.087 317.165 108.999 316.99 108.999 316.727C109.35 314.973 109.525 313.22 109.525 311.379C109.525 297.179 97.9545 285.696 83.8416 285.696C83.5786 285.696 83.4033 285.52 83.4033 285.257C83.4033 284.994 83.5786 284.819 83.8416 284.819C98.4805 284.819 110.402 296.741 110.402 311.379C110.402 313.22 110.227 315.061 109.788 316.902C109.788 317.165 109.613 317.253 109.438 317.253Z"/><path fill="#fff" d="M61.6637 325.755C61.4883 325.755 61.4007 325.668 61.313 325.58C58.6833 321.372 57.2808 316.464 57.2808 311.467C57.2808 300.334 64.2934 290.341 74.7247 286.485C74.9877 286.397 75.163 286.485 75.2506 286.748C75.3383 287.01 75.2506 287.186 74.9877 287.273C64.907 290.955 58.1573 300.685 58.1573 311.379C58.1573 316.201 59.4722 320.934 62.1019 325.054C62.1896 325.229 62.1896 325.492 61.9266 325.668C61.839 325.755 61.7513 325.755 61.6637 325.755Z"/><path fill="#fff" d="M87.5231 289.29L81.124 285.608L87.5231 281.839V289.29Z"/><path fill="#fff" d="M64.2059 321.285V328.736L57.7192 324.966L64.2059 321.285Z"/><path fill="#fff" d="M100.935 326.72L107.421 323.038V330.489L100.935 326.72Z"/><path fill="#fff" d="M340.076 100.546H314.743V101.422H340.076V100.546Z"/><path fill="#fff" d="M339.112 97.4777L345.073 100.984L339.112 104.49V97.4777Z"/><path fill="#fff" d="M421.511 100.546H396.178V101.422H421.511V100.546Z"/><path fill="#fff" d="M420.459 97.4777L426.507 100.984L420.459 104.49V97.4777Z"/><path fill="#fff" d="M377.331 91.0788C376.98 90.7281 376.454 90.7281 376.104 91.0788C375.928 91.2541 375.841 91.4294 375.841 91.6924C375.841 91.9553 375.928 92.1307 376.104 92.306L384.081 100.195C384.431 100.546 384.431 101.072 384.081 101.51L375.929 109.662C375.578 110.013 375.578 110.539 375.929 110.977C376.279 111.24 376.805 111.24 377.156 110.977L386.71 101.51C386.973 101.159 386.973 100.633 386.71 100.195L377.331 91.0788Z"/><path fill="#fff" d="M354.452 101.51C354.102 101.159 354.102 100.633 354.452 100.195L362.341 92.306C362.517 92.1307 362.604 91.9553 362.604 91.6924C362.604 91.4294 362.517 91.2541 362.341 91.0788C361.991 90.7281 361.465 90.7281 361.114 91.0788L351.735 100.195C351.472 100.546 351.472 101.072 351.735 101.51L361.202 110.977C361.553 111.24 362.078 111.24 362.429 110.977C362.78 110.626 362.78 110.101 362.429 109.662L354.452 101.51Z"/><path fill="#fff" d="M363.569 115.623L376.98 96.6012H370.494L376.805 86.8712H371.896H367.338L362.254 101.247L368.478 101.335L363.569 115.623Z"/><path fill="#fff" d="M377.331 51.6326C376.98 51.282 376.454 51.282 376.104 51.6326C375.928 51.8079 375.841 51.9832 375.841 52.2462C375.841 52.5092 375.928 52.6845 376.104 52.8598L384.081 60.749C384.431 61.0997 384.431 61.6256 384.081 62.0639L375.929 70.2161C375.578 70.5667 375.578 71.0927 375.929 71.531C376.279 71.7939 376.805 71.7939 377.156 71.531L386.71 62.0639C386.973 61.7133 386.973 61.1873 386.71 60.749L377.331 51.6326Z"/><path fill="#fff" d="M354.452 62.0639C354.102 61.7133 354.102 61.1873 354.452 60.749L362.341 52.8598C362.517 52.6845 362.604 52.5092 362.604 52.2462C362.604 51.9832 362.517 51.8079 362.341 51.6326C361.991 51.282 361.465 51.282 361.114 51.6326L351.735 60.749C351.472 61.0997 351.472 61.6256 351.735 62.0639L361.202 71.531C361.553 71.7939 362.078 71.7939 362.429 71.531C362.78 71.1803 362.78 70.6544 362.429 70.2161L354.452 62.0639Z"/><path fill="#fff" d="M363.569 76.2645L376.98 57.2427H370.494L376.805 47.5127H371.896H367.338L362.254 61.8886L368.478 61.9763L363.569 76.2645Z"/><path fill="#fff" d="M377.331 130.525C376.98 130.174 376.454 130.174 376.104 130.525C375.928 130.7 375.841 130.875 375.841 131.138C375.841 131.401 375.928 131.577 376.104 131.752L384.081 139.641C384.431 139.992 384.431 140.518 384.081 140.956L375.929 149.108C375.578 149.459 375.578 149.985 375.929 150.423C376.279 150.686 376.805 150.686 377.156 150.423L386.71 140.956C386.973 140.605 386.973 140.08 386.71 139.641L377.331 130.525Z"/><path fill="#fff" d="M354.452 140.956C354.102 140.605 354.102 140.08 354.452 139.641L362.341 131.752C362.517 131.577 362.604 131.401 362.604 131.138C362.604 130.875 362.517 130.7 362.341 130.525C361.991 130.174 361.465 130.174 361.114 130.525L351.735 139.641C351.472 139.992 351.472 140.518 351.735 140.956L361.202 150.423C361.553 150.686 362.078 150.686 362.429 150.423C362.78 150.073 362.78 149.547 362.429 149.108L354.452 140.956Z"/><path fill="#fff" d="M363.569 155.157L376.98 136.135H370.494L376.805 126.405H371.896H367.338L362.254 140.781L368.478 140.868L363.569 155.157Z"/><path fill="#fff" d="M298.614 91.0788C298.264 90.7281 297.738 90.7281 297.387 91.0788C297.212 91.2541 297.124 91.4294 297.124 91.6924C297.124 91.9553 297.212 92.1307 297.387 92.306L305.364 100.195C305.715 100.546 305.715 101.072 305.364 101.51L297.212 109.662C296.861 110.013 296.861 110.539 297.212 110.977C297.562 111.24 298.088 111.24 298.439 110.977L307.994 101.51C308.257 101.159 308.257 100.633 307.994 100.195L298.614 91.0788Z"/><path fill="#fff" d="M275.735 101.51C275.385 101.159 275.385 100.633 275.735 100.195L283.625 92.306C283.8 92.1307 283.888 91.9553 283.888 91.6924C283.888 91.4294 283.8 91.2541 283.625 91.0788C283.274 90.7281 282.748 90.7281 282.397 91.0788L273.018 100.195C272.755 100.546 272.755 101.072 273.018 101.51L282.485 110.977C282.836 111.24 283.362 111.24 283.712 110.977C284.063 110.626 284.063 110.101 283.712 109.662L275.735 101.51Z"/><path fill="#fff" d="M284.94 115.623L298.352 96.6012H291.865L298.176 86.8712H293.267H288.709L283.625 101.247L289.849 101.335L284.94 115.623Z"/><path fill="#fff" d="M457.713 91.0788C457.363 90.7281 456.837 90.7281 456.486 91.0788C456.311 91.2541 456.223 91.4294 456.223 91.6924C456.223 91.9553 456.311 92.1307 456.486 92.306L464.463 100.195C464.814 100.546 464.814 101.072 464.463 101.51L456.311 109.662C455.96 110.013 455.96 110.539 456.311 110.977C456.661 111.24 457.187 111.24 457.538 110.977L467.093 101.51C467.356 101.159 467.356 100.633 467.093 100.195L457.713 91.0788Z"/><path fill="#fff" d="M434.835 101.51C434.484 101.159 434.484 100.633 434.835 100.195L442.724 92.306C442.899 92.1307 442.987 91.9553 442.987 91.6924C442.987 91.4294 442.899 91.2541 442.724 91.0788C442.373 90.7281 441.847 90.7281 441.497 91.0788L432.117 100.195C431.854 100.546 431.854 101.072 432.117 101.51L441.584 110.977C441.935 111.24 442.461 111.24 442.811 110.977C443.162 110.626 443.162 110.101 442.811 109.662L434.835 101.51Z"/><path fill="#fff" d="M444.039 115.623L457.451 96.6012H450.964L457.275 86.8712H452.366H447.808L442.724 101.247L448.948 101.335L444.039 115.623Z"/><path fill="#fff" d="M341.654 141.307H331.661C327.892 141.307 324.824 138.239 324.824 134.469V68.1122C324.824 64.3429 327.892 61.2749 331.661 61.2749H341.654V62.1515H331.661C328.418 62.1515 325.7 64.7812 325.7 68.1122V134.469C325.7 137.713 328.33 140.43 331.661 140.43H341.654V141.307Z"/><path fill="#fff" d="M405.469 141.307H395.476V140.43H405.469C408.712 140.43 411.43 137.8 411.43 134.469V106.507H412.306V134.469C412.306 138.239 409.238 141.307 405.469 141.307Z"/><path fill="#fff" d="M412.306 95.4615H411.43V68.1122C411.43 64.8689 408.8 62.1515 405.469 62.1515H395.476V61.2749H405.469C409.238 61.2749 412.306 64.3429 412.306 68.1122V95.4615Z"/><path fill="#fff" d="M339.112 58.2947L345.073 61.7133L339.112 65.2197V58.2947Z"/><path fill="#fff" d="M339.112 137.45L345.073 140.868L339.112 144.375V137.45Z"/><path fill="#fff" d="M415.287 91.0786L411.868 97.0394L408.362 91.0786H415.287Z"/><path fill="#fff" d="M408.362 111.065L411.868 105.016L415.287 111.065H408.362Z"/><path fill="#fff" d="M381.264 315.894H362.944V316.77H381.264V315.894Z"/><path fill="#fff" d="M380.3 312.914L386.261 316.332L380.3 319.839V312.914Z"/><path fill="#fff" d="M385.998 322.556H367.678V323.432H385.998V322.556Z"/><path fill="#fff" d="M368.642 326.5L362.681 322.994L368.642 319.575V326.5Z"/><path fill="#fff" d="M381.09 295.557H362.769V296.434H381.09V295.557Z"/><path fill="#fff" d="M380.125 292.489L386.173 295.995L380.125 299.502V292.489Z"/><path fill="#fff" d="M429.038 297.31C428.687 296.96 428.161 296.96 427.811 297.31C427.636 297.486 427.548 297.661 427.548 297.924C427.548 298.187 427.636 298.362 427.811 298.538L435.788 306.427C436.138 306.777 436.138 307.303 435.788 307.742L427.636 315.894C427.285 316.244 427.285 316.77 427.636 317.209C427.986 317.472 428.512 317.472 428.863 317.209L438.417 307.742C438.68 307.391 438.68 306.865 438.417 306.427L429.038 297.31Z"/><path fill="#fff" d="M406.159 307.742C405.809 307.391 405.809 306.865 406.159 306.427L414.048 298.538C414.224 298.362 414.311 298.187 414.311 297.924C414.311 297.661 414.224 297.486 414.048 297.31C413.698 296.96 413.172 296.96 412.821 297.31L403.442 306.427C403.179 306.777 403.179 307.303 403.442 307.742L412.909 317.209C413.26 317.472 413.786 317.472 414.136 317.209C414.487 316.858 414.487 316.332 414.136 315.894L406.159 307.742Z"/><path fill="#fff" d="M429.214 302.219H422.464L429.038 292.139L422.464 302.219H422.289L429.038 291.876H423.779H418.958L413.523 307.303L420.185 307.391L415.013 322.644L429.126 302.57H429.389H429.126L429.214 302.219Z"/><path fill="#fff" d="M347.341 308.969V304.498C347.341 303.885 346.903 303.446 346.289 303.446H344.185C344.01 303.446 343.923 303.446 343.747 303.359C343.309 303.184 343.046 302.833 342.871 302.482L340.592 297.135C340.416 296.784 340.416 296.346 340.504 295.996C340.592 295.82 340.679 295.733 340.767 295.645L342.257 294.155C342.695 293.716 342.695 293.103 342.257 292.665L339.101 289.509C339.014 289.421 338.838 289.334 338.663 289.246C338.312 289.071 337.786 289.158 337.523 289.421L336.121 290.824C335.683 291.262 334.981 291.35 334.455 291.087L328.232 288.632C327.706 288.457 327.268 287.931 327.268 287.317V285.389C327.268 284.775 326.829 284.337 326.216 284.337H321.745C321.307 284.337 320.956 284.6 320.781 285.038C320.693 285.126 320.693 285.301 320.693 285.477V287.493C320.693 288.106 320.255 288.72 319.641 288.895L314.382 291.174C313.856 291.437 313.155 291.35 312.716 290.911L311.314 289.509C310.875 289.071 310.262 289.071 309.824 289.509L306.668 292.665C306.23 293.103 306.23 293.716 306.668 294.155L308.07 295.557C308.509 295.996 308.596 296.697 308.333 297.223L305.791 303.446C305.616 303.972 305.002 304.411 304.476 304.498H302.548C302.11 304.498 301.759 304.761 301.584 305.112C301.496 305.287 301.496 305.375 301.496 305.55V310.021C301.496 310.634 301.934 311.073 302.548 311.073H304.652C304.827 311.073 304.915 311.073 305.09 311.16C305.528 311.336 305.791 311.686 305.967 312.037L308.246 317.384C308.421 317.735 308.421 318.173 308.333 318.524C308.246 318.699 308.158 318.787 308.07 318.874L306.58 320.364C306.142 320.803 306.142 321.416 306.58 321.855L309.736 325.01C309.824 325.098 309.999 325.186 310.174 325.273C310.525 325.449 311.051 325.361 311.314 325.098L312.716 323.695C313.155 323.257 313.856 323.17 314.382 323.432L320.606 325.887C321.131 326.062 321.57 326.588 321.57 327.202V329.13C321.57 329.744 322.008 330.182 322.622 330.182H327.092C327.53 330.182 327.881 329.919 328.056 329.481C328.144 329.393 328.144 329.218 328.144 329.043V327.026C328.144 326.413 328.582 325.799 329.196 325.624L334.455 323.345C334.981 323.082 335.683 323.17 336.121 323.608L337.523 325.01C337.962 325.449 338.575 325.449 339.014 325.01L342.169 321.855C342.608 321.416 342.608 320.803 342.169 320.364L340.767 318.962C340.329 318.524 340.241 317.822 340.504 317.296L343.046 311.073C343.221 310.547 343.835 310.108 344.361 310.021H346.289C346.728 310.021 347.078 309.758 347.254 309.407C347.254 309.32 347.341 309.144 347.341 308.969ZM334.981 317.735C329.108 323.608 319.729 323.608 313.856 317.735C310.525 314.404 309.122 309.933 309.561 305.638C309.911 302.395 311.314 299.151 313.856 296.697C319.729 290.824 329.108 290.824 334.981 296.697C338.312 300.028 339.715 304.498 339.277 308.794C338.926 312.125 337.523 315.28 334.981 317.735Z"/><path fill="#fff" d="M323.235 311.248H321.92L321.219 309.407H318.326L317.713 311.248H316.398L319.115 303.885H320.518L323.235 311.248ZM320.956 308.355L319.904 305.375C319.904 305.287 319.817 305.112 319.817 304.937C319.817 305.112 319.729 305.287 319.729 305.375L318.677 308.355H320.956Z"/><path fill="#fff" d="M325.514 308.531V311.16H324.287V303.797H326.479C327.355 303.797 327.969 303.972 328.407 304.411C328.845 304.849 329.108 305.375 329.108 306.076C329.108 306.777 328.845 307.391 328.407 307.829C327.969 308.268 327.267 308.531 326.479 308.531H325.514ZM325.514 304.849V307.566H326.303C326.829 307.566 327.267 307.479 327.53 307.216C327.793 306.953 327.969 306.602 327.969 306.164C327.969 305.287 327.443 304.849 326.479 304.849H325.514V304.849Z"/><path fill="#fff" d="M331.651 311.248H330.423V303.885H331.651V311.248Z"/><path fill="#fff" d="M365.837 285.652V284.6C365.925 284.688 366.012 284.775 366.188 284.863C366.275 284.951 366.451 284.951 366.626 285.038C366.801 285.126 366.889 285.126 367.064 285.126C367.239 285.126 367.327 285.126 367.415 285.126C367.853 285.126 368.116 285.038 368.379 284.951C368.554 284.775 368.642 284.6 368.642 284.337C368.642 284.162 368.642 284.074 368.554 283.986C368.467 283.899 368.379 283.811 368.291 283.723C368.204 283.636 368.028 283.548 367.853 283.46C367.678 283.373 367.502 283.285 367.327 283.197C367.152 283.11 366.976 283.022 366.801 282.847C366.626 282.759 366.451 282.584 366.363 282.496C366.275 282.321 366.1 282.233 366.1 282.058C366.012 281.883 366.012 281.707 366.012 281.444C366.012 281.181 366.1 280.918 366.188 280.743C366.275 280.568 366.451 280.392 366.713 280.217C366.889 280.042 367.152 279.954 367.415 279.954C367.678 279.866 367.941 279.866 368.204 279.866C368.817 279.866 369.256 279.954 369.519 280.042V281.006C369.168 280.743 368.73 280.655 368.204 280.655C368.028 280.655 367.941 280.655 367.765 280.655C367.59 280.655 367.502 280.743 367.415 280.831C367.327 280.918 367.239 281.006 367.152 281.094C367.064 281.181 367.064 281.269 367.064 281.444C367.064 281.62 367.064 281.707 367.152 281.795C367.239 281.883 367.327 281.97 367.415 282.058C367.502 282.146 367.678 282.233 367.765 282.321C367.941 282.409 368.116 282.496 368.291 282.584C368.467 282.671 368.73 282.847 368.905 282.934C369.08 283.022 369.256 283.197 369.431 283.285C369.606 283.46 369.694 283.548 369.782 283.723C369.869 283.899 369.869 284.074 369.869 284.337C369.869 284.6 369.782 284.863 369.694 285.126C369.606 285.301 369.431 285.477 369.168 285.652C368.993 285.74 368.73 285.915 368.467 285.915C368.204 285.915 367.941 286.003 367.59 286.003C367.502 286.003 367.327 286.003 367.239 286.003C367.064 286.003 366.976 286.003 366.801 285.915C366.626 285.915 366.538 285.827 366.363 285.827C366.012 285.74 365.925 285.652 365.837 285.652Z"/><path fill="#fff" d="M372.587 285.827C372.411 285.915 372.148 286.003 371.886 286.003C371.097 286.003 370.658 285.652 370.658 284.863V282.496H369.957V281.707H370.658V280.743L371.623 280.48V281.707H372.674V282.496H371.623V284.6C371.623 284.863 371.71 285.038 371.798 285.126C371.886 285.214 372.061 285.301 372.236 285.301C372.411 285.301 372.499 285.214 372.674 285.126V285.827H372.587Z"/><path fill="#fff" d="M376.619 285.827H375.655V285.126C375.392 285.652 374.953 285.915 374.34 285.915C373.901 285.915 373.639 285.827 373.376 285.564C373.113 285.301 373.025 285.038 373.025 284.688C373.025 283.899 373.463 283.46 374.427 283.285L375.655 283.11C375.655 282.496 375.392 282.233 374.778 282.233C374.252 282.233 373.814 282.408 373.376 282.759V281.883C373.814 281.62 374.34 281.444 374.953 281.444C376.005 281.444 376.531 281.97 376.531 283.022V285.827H376.619ZM375.742 283.811L374.866 283.899C374.603 283.899 374.427 283.986 374.252 284.074C374.077 284.162 374.077 284.337 374.077 284.6C374.077 284.775 374.164 284.951 374.252 285.038C374.34 285.126 374.515 285.213 374.778 285.213C375.041 285.213 375.304 285.126 375.479 284.863C375.655 284.688 375.742 284.425 375.742 284.074V283.811V283.811Z"/><path fill="#fff" d="M380.213 282.584C380.125 282.496 379.95 282.409 379.687 282.409C379.424 282.409 379.161 282.496 378.986 282.759C378.81 283.022 378.723 283.373 378.723 283.811V285.827H377.758V281.62H378.723V282.496C378.81 282.233 378.985 281.97 379.161 281.795C379.336 281.62 379.599 281.532 379.774 281.532C379.95 281.532 380.037 281.532 380.213 281.62V282.584V282.584Z"/><path fill="#fff" d="M383.369 285.827C383.193 285.915 382.93 286.003 382.667 286.003C381.878 286.003 381.44 285.652 381.44 284.863V282.496H380.739V281.707H381.44V280.743L382.404 280.48V281.707H383.456V282.496H382.404V284.6C382.404 284.863 382.492 285.038 382.58 285.126C382.667 285.214 382.843 285.301 383.018 285.301C383.193 285.301 383.281 285.214 383.456 285.126V285.827H383.369Z"/><path fill="#fff" d="M360.226 339.211C359.613 339.561 358.912 339.737 358.123 339.737C357.246 339.737 356.545 339.474 356.019 338.948C355.493 338.422 355.23 337.721 355.23 336.756C355.23 335.88 355.493 335.091 356.107 334.477C356.72 333.864 357.421 333.601 358.386 333.601C359.087 333.601 359.613 333.688 360.051 333.864V334.916C359.613 334.653 359.087 334.477 358.386 334.477C357.772 334.477 357.246 334.653 356.808 335.091C356.37 335.529 356.194 336.055 356.194 336.669C356.194 337.37 356.37 337.896 356.72 338.247C357.071 338.597 357.509 338.86 358.123 338.86C358.561 338.86 358.912 338.773 359.175 338.597V337.195H357.947V336.406H360.139V339.211H360.226Z"/><path fill="#fff" d="M364.96 337.808H362.068C362.068 338.159 362.155 338.51 362.418 338.685C362.681 338.86 362.944 339.036 363.383 339.036C363.821 339.036 364.259 338.86 364.61 338.597V339.386C364.259 339.649 363.733 339.737 363.12 339.737C362.506 339.737 361.98 339.561 361.629 339.123C361.279 338.685 361.104 338.159 361.104 337.545C361.104 336.844 361.279 336.318 361.717 335.967C362.068 335.529 362.594 335.354 363.207 335.354C363.821 335.354 364.259 335.529 364.522 335.88C364.873 336.23 364.96 336.756 364.96 337.458V337.808V337.808ZM363.996 337.107C363.996 336.756 363.909 336.493 363.733 336.318C363.558 336.143 363.383 336.055 363.032 336.055C362.769 336.055 362.506 336.143 362.331 336.318C362.155 336.493 361.98 336.756 361.98 337.107H363.996Z"/><path fill="#fff" d="M368.116 339.649C367.941 339.737 367.678 339.824 367.415 339.824C366.626 339.824 366.188 339.474 366.188 338.685V336.318H365.486V335.529H366.188V334.477L367.152 334.214V335.442H368.204V336.23H367.152V338.334C367.152 338.597 367.239 338.773 367.327 338.86C367.415 338.948 367.59 339.036 367.765 339.036C367.941 339.036 368.028 338.948 368.204 338.86V339.649H368.116Z"/><path fill="#fff" d="M371.096 339.386V338.334C371.184 338.422 371.272 338.51 371.447 338.597C371.534 338.685 371.71 338.685 371.885 338.773C372.06 338.86 372.148 338.86 372.323 338.86C372.499 338.86 372.586 338.86 372.674 338.86C373.112 338.86 373.375 338.773 373.638 338.685C373.814 338.51 373.901 338.334 373.901 338.071C373.901 337.896 373.901 337.808 373.814 337.721C373.726 337.633 373.638 337.545 373.551 337.458C373.463 337.37 373.288 337.282 373.112 337.195C372.937 337.107 372.762 337.019 372.586 336.932C372.411 336.844 372.236 336.756 372.06 336.581C371.885 336.493 371.71 336.318 371.622 336.23C371.534 336.055 371.359 335.967 371.359 335.792C371.271 335.617 371.271 335.442 371.271 335.179C371.271 334.916 371.359 334.653 371.447 334.477C371.534 334.302 371.71 334.127 371.973 333.951C372.148 333.776 372.411 333.688 372.674 333.688C372.937 333.601 373.2 333.601 373.463 333.601C374.077 333.601 374.515 333.688 374.778 333.776V334.74C374.427 334.477 373.989 334.39 373.463 334.39C373.288 334.39 373.2 334.39 373.025 334.39C372.849 334.39 372.762 334.477 372.674 334.565C372.586 334.653 372.499 334.74 372.411 334.828C372.323 334.916 372.323 335.003 372.323 335.179C372.323 335.354 372.323 335.442 372.411 335.529C372.499 335.617 372.586 335.704 372.674 335.792C372.762 335.88 372.937 335.967 373.025 336.055C373.2 336.143 373.375 336.23 373.551 336.318C373.726 336.406 373.989 336.581 374.164 336.669C374.34 336.756 374.515 336.932 374.69 337.019C374.865 337.195 374.953 337.282 375.041 337.458C375.128 337.633 375.128 337.808 375.128 338.071C375.128 338.334 375.041 338.597 374.953 338.86C374.865 339.035 374.69 339.211 374.427 339.386C374.252 339.474 373.989 339.649 373.726 339.649C373.463 339.649 373.2 339.737 372.849 339.737C372.762 339.737 372.586 339.737 372.499 339.737C372.323 339.737 372.236 339.737 372.06 339.649C371.885 339.649 371.797 339.561 371.622 339.561C371.272 339.474 371.184 339.474 371.096 339.386Z"/><path fill="#fff" d="M377.846 339.649C377.67 339.737 377.407 339.824 377.144 339.824C376.355 339.824 375.917 339.474 375.917 338.685V336.318H375.216V335.529H375.917V334.477L376.881 334.214V335.442H377.933V336.23H376.881V338.334C376.881 338.597 376.969 338.773 377.057 338.86C377.144 338.948 377.32 339.036 377.495 339.036C377.67 339.036 377.758 338.948 377.933 338.86V339.649H377.846Z"/><path fill="#fff" d="M381.878 339.649H380.914V338.948C380.651 339.474 380.213 339.737 379.599 339.737C379.161 339.737 378.898 339.649 378.635 339.386C378.372 339.123 378.284 338.86 378.284 338.51C378.284 337.721 378.722 337.282 379.687 337.107L380.914 336.932C380.914 336.318 380.651 336.055 380.037 336.055C379.511 336.055 379.073 336.231 378.635 336.581V335.705C379.073 335.442 379.599 335.266 380.213 335.266C381.265 335.266 381.79 335.792 381.79 336.844V339.649H381.878ZM381.002 337.545L380.125 337.633C379.862 337.633 379.687 337.721 379.511 337.808C379.336 337.896 379.336 338.071 379.336 338.334C379.336 338.51 379.424 338.685 379.511 338.773C379.599 338.86 379.774 338.948 380.037 338.948C380.3 338.948 380.563 338.86 380.739 338.597C380.914 338.422 381.002 338.159 381.002 337.808V337.545V337.545Z"/><path fill="#fff" d="M385.297 339.649C385.121 339.737 384.858 339.824 384.595 339.824C383.807 339.824 383.368 339.474 383.368 338.685V336.318H382.667V335.529H383.368V334.477L384.333 334.214V335.442H385.384V336.23H384.333V338.334C384.333 338.597 384.42 338.773 384.508 338.86C384.595 338.948 384.771 339.036 384.946 339.036C385.121 339.036 385.209 338.948 385.384 338.86V339.649H385.297Z"/><path fill="#fff" d="M389.855 339.649H388.891V338.948C388.628 339.474 388.19 339.737 387.576 339.737C386.612 339.737 386.086 339.123 386.086 337.896V335.354H387.05V337.808C387.05 338.597 387.313 338.948 387.927 338.948C388.19 338.948 388.453 338.86 388.628 338.597C388.803 338.422 388.891 338.071 388.891 337.808V335.354H389.855V339.649V339.649Z"/><path fill="#fff" d="M390.819 339.561V338.685C391.17 338.948 391.608 339.123 392.047 339.123C392.66 339.123 392.923 338.948 392.923 338.597C392.923 338.51 392.923 338.422 392.835 338.334C392.748 338.247 392.748 338.247 392.66 338.159C392.572 338.071 392.485 338.071 392.397 337.984C392.31 337.984 392.134 337.896 392.047 337.808C391.871 337.721 391.696 337.633 391.608 337.633C391.433 337.545 391.345 337.458 391.258 337.37C391.17 337.282 391.082 337.195 391.082 337.019C390.995 336.932 390.995 336.756 390.995 336.581C390.995 336.406 391.082 336.23 391.17 336.055C391.258 335.88 391.433 335.792 391.521 335.705C391.696 335.617 391.871 335.529 392.047 335.442C392.222 335.354 392.485 335.354 392.66 335.354C393.011 335.354 393.361 335.442 393.712 335.529V336.406C393.449 336.23 393.098 336.143 392.66 336.143C392.572 336.143 392.397 336.143 392.31 336.143C392.222 336.143 392.134 336.23 392.047 336.23C391.959 336.318 391.959 336.318 391.871 336.406C391.871 336.493 391.784 336.493 391.784 336.581C391.784 336.669 391.784 336.756 391.871 336.844C391.959 336.932 391.959 336.932 392.047 337.019C392.134 337.107 392.222 337.107 392.31 337.195C392.397 337.282 392.572 337.282 392.66 337.282C392.835 337.37 393.011 337.458 393.186 337.545C393.361 337.633 393.449 337.721 393.537 337.808C393.624 337.896 393.712 337.984 393.8 338.159C393.887 338.334 393.887 338.422 393.887 338.597C393.887 338.773 393.8 339.036 393.712 339.123C393.624 339.298 393.449 339.386 393.274 339.561C393.098 339.737 392.923 339.737 392.66 339.824C392.485 339.912 392.222 339.912 391.959 339.912C391.521 339.737 391.17 339.649 390.819 339.561Z"/><path fill="#fff" d="M569.637 307.961H559.206V308.838H569.637V307.961Z"/><path fill="#fff" d="M664.132 307.961H653.701V308.838H664.132V307.961Z"/><path fill="#fff" d="M663.168 304.893L669.216 308.399L663.168 311.818V304.893Z"/><path fill="#fff" d="M588.747 341.709H576.124C572.355 341.709 569.287 338.641 569.287 334.872V282.54C569.287 278.771 572.355 275.703 576.124 275.703H588.747V276.579H576.124C572.881 276.579 570.163 279.209 570.163 282.54V334.872C570.163 338.115 572.793 340.833 576.124 340.833H588.747V341.709Z"/><path fill="#fff" d="M648.178 341.709H635.556V340.833H648.178C651.422 340.833 654.139 338.203 654.139 334.872V313.922H655.016V334.872C655.016 338.641 651.948 341.709 648.178 341.709Z"/><path fill="#fff" d="M655.016 302.789H654.139V282.452C654.139 279.209 651.509 276.492 648.178 276.492H635.556V275.615H648.178C651.948 275.615 655.016 278.683 655.016 282.452V302.789Z"/><path fill="#fff" d="M586.205 272.635L592.165 276.141L586.205 279.647V272.635Z"/><path fill="#fff" d="M586.205 337.765L592.165 341.271L586.205 344.777V337.765Z"/><path fill="#fff" d="M657.996 298.406L654.578 304.455L651.071 298.406H657.996Z"/><path fill="#fff" d="M651.071 318.48L654.578 312.432L657.996 318.48H651.071Z"/><path fill="#fff" d="M702.877 298.669C702.526 298.319 702 298.319 701.65 298.669C701.474 298.845 701.387 299.02 701.387 299.283C701.387 299.546 701.474 299.721 701.65 299.896L709.627 307.786C709.977 308.136 709.977 308.662 709.627 309.101L701.474 317.253C701.124 317.603 701.124 318.129 701.474 318.568C701.825 318.831 702.351 318.831 702.702 318.568L712.256 309.101C712.519 308.75 712.519 308.224 712.256 307.786L702.877 298.669Z"/><path fill="#fff" d="M679.999 309.101C679.648 308.75 679.648 308.224 679.999 307.786L687.888 299.896C688.063 299.721 688.151 299.546 688.151 299.283C688.151 299.02 688.063 298.845 687.888 298.669C687.537 298.319 687.011 298.319 686.661 298.669L677.281 307.786C677.018 308.136 677.018 308.662 677.281 309.101L686.748 318.568C687.099 318.831 687.625 318.831 687.975 318.568C688.326 318.217 688.326 317.691 687.975 317.253L679.999 309.101Z"/><path fill="#fff" d="M689.203 323.301L702.614 304.279H696.128L702.439 294.549H697.53H692.972L687.888 308.925L694.111 309.013L689.203 323.301Z"/><path fill="#fff" d="M544.129 298.669C543.778 298.319 543.252 298.319 542.902 298.669C542.726 298.845 542.639 299.02 542.639 299.283C542.639 299.546 542.726 299.721 542.902 299.896L550.879 307.786C551.229 308.136 551.229 308.662 550.879 309.101L542.726 317.253C542.376 317.603 542.376 318.129 542.726 318.568C543.077 318.831 543.603 318.831 543.954 318.568L553.508 309.101C553.771 308.75 553.771 308.224 553.508 307.786L544.129 298.669Z"/><path fill="#fff" d="M521.25 309.101C520.899 308.75 520.899 308.224 521.25 307.786L529.139 299.896C529.315 299.721 529.402 299.546 529.402 299.283C529.402 299.02 529.315 298.845 529.139 298.669C528.789 298.319 528.263 298.319 527.912 298.669L518.533 307.786C518.27 308.136 518.27 308.662 518.533 309.101L528 318.568C528.35 318.831 528.876 318.831 529.227 318.568C529.578 318.217 529.578 317.691 529.227 317.253L521.25 309.101Z"/><path fill="#fff" d="M530.367 323.301L543.778 304.279H537.292L543.603 294.549H538.694H534.136L529.052 308.925L535.276 309.013L530.367 323.301Z"/><path fill="#fff" d="M605.664 346.18H601.544V347.933H605.664V346.18Z"/><path fill="#fff" d="M615.018 359.561L615.018 355.441L613.264 355.441L613.264 359.561L615.018 359.561Z"/><path fill="#fff" d="M614.08 348.547C614.999 348.547 615.745 347.801 615.745 346.881C615.745 345.961 614.999 345.216 614.08 345.216C613.16 345.216 612.414 345.961 612.414 346.881C612.414 347.801 613.16 348.547 614.08 348.547Z"/><path fill="#fff" d="M614.08 330.84C605.139 330.84 597.951 338.028 597.951 346.969C597.951 355.91 605.139 363.098 614.08 363.098C623.021 363.098 630.209 355.91 630.209 346.969C630.209 338.028 623.021 330.84 614.08 330.84ZM614.08 361.082C606.278 361.082 599.879 354.683 599.879 346.881C599.879 339.079 606.278 332.68 614.08 332.68C621.881 332.68 628.28 339.079 628.28 346.881C628.28 354.77 621.969 361.082 614.08 361.082Z"/><path fill="#fff" d="M614.167 335.924H613.992C613.729 335.924 613.553 336.099 613.466 336.362L613.115 345.654H615.044L614.605 336.362C614.693 336.099 614.43 335.924 614.167 335.924Z"/><path fill="#fff" d="M625.125 347.056V346.881C625.125 346.618 624.949 346.443 624.686 346.355L615.395 346.005V347.933L624.686 347.495C624.949 347.495 625.125 347.319 625.125 347.056Z"/><path fill="#fff" d="M598.652 292.095C598.652 283.592 605.577 276.667 614.08 276.667C622.582 276.667 629.507 283.592 629.507 292.095H598.652Z"/><path fill="#fff" d="M622.846 265.447C622.846 270.268 618.901 274.213 614.08 274.213C609.259 274.213 605.314 270.268 605.314 265.447C605.314 260.626 609.259 256.681 614.08 256.681C618.901 256.769 622.846 260.626 622.846 265.447Z"/><path fill="#fff" d="M661.425 91.2649C661.075 90.9143 660.549 90.9143 660.198 91.2649C660.023 91.4402 659.935 91.6156 659.935 91.8785C659.935 92.1415 660.023 92.3168 660.198 92.4921L668.175 100.381C668.526 100.732 668.526 101.258 668.175 101.696L660.023 109.848C659.672 110.199 659.672 110.725 660.023 111.163C660.373 111.426 660.899 111.426 661.25 111.163L670.805 101.696C671.068 101.346 671.068 100.82 670.805 100.381L661.425 91.2649Z"/><path fill="#fff" d="M638.546 101.696C638.196 101.346 638.196 100.82 638.546 100.381L646.436 92.4921C646.611 92.3168 646.699 92.1415 646.699 91.8785C646.699 91.6156 646.611 91.4402 646.436 91.2649C646.085 90.9143 645.559 90.9143 645.208 91.2649L635.829 100.381C635.566 100.732 635.566 101.258 635.829 101.696L645.296 111.163C645.647 111.426 646.173 111.426 646.523 111.163C646.874 110.813 646.874 110.287 646.523 109.848L638.546 101.696Z"/><path fill="#fff" d="M646.874 117.825L657.393 98.8036L650.293 98.7159L656.254 85.0413H651.082L645.296 101.433L652.397 101.521L646.874 117.825Z"/><path fill="#FF8B00" d="M654.676 96.0862L661.864 85.0413L654.676 96.0862Z"/><path fill="#FF8B00" d="M662.127 96.1738L646.874 117.825L662.127 96.1738Z"/><path fill="#fff" d="M657.393 98.8034L646.874 117.825L662.127 96.1737H654.676L661.864 85.1288H656.253L650.293 98.8034H657.393Z"/><path fill="#fff" d="M624.259 100.732H589.283V101.609H624.259V100.732Z"/><path fill="#fff" d="M623.294 97.6639L629.342 101.17L623.294 104.677V97.6639Z"/><path fill="#fff" d="M608.217 141.493H588.582V140.616H608.217C611.461 140.616 614.178 137.987 614.178 134.656V106.693H615.055V134.656C615.055 138.425 611.987 141.493 608.217 141.493Z"/><path fill="#fff" d="M615.055 95.6478H614.178V68.2985C614.178 65.0552 611.548 62.3378 608.217 62.3378H588.582V61.4612H608.217C611.987 61.4612 615.055 64.5292 615.055 68.2985V95.6478Z"/><path fill="#fff" d="M618.122 91.2649L614.616 97.2256L611.197 91.2649H618.122Z"/><path fill="#fff" d="M611.197 111.251L614.616 105.203L618.122 111.251H611.197Z"/><path fill="#fff" d="M573.329 107.569C574.118 106.78 575.433 106.78 576.222 107.569C577.011 108.358 577.011 109.673 576.222 110.462C575.433 111.251 574.118 111.251 573.329 110.462C572.54 109.673 572.54 108.358 573.329 107.569Z"/><path fill="#fff" d="M555.447 107.569C556.236 106.78 557.551 106.78 558.34 107.569C559.129 108.358 559.129 109.673 558.34 110.462C557.551 111.251 556.236 111.251 555.447 110.462C554.658 109.673 554.658 108.446 555.447 107.569Z"/><path fill="#fff" d="M564.739 108.008C564.213 107.482 563.336 107.482 562.81 108.008C562.635 108.183 562.547 108.446 562.46 108.621H561.057C560.969 107.657 560.531 106.78 559.83 106.079C559.392 105.641 558.953 105.378 558.427 105.203L559.304 103.8C559.567 103.888 559.742 103.888 560.005 103.8C560.707 103.625 561.232 102.923 561.057 102.135C560.882 101.433 560.181 100.907 559.392 101.083C558.69 101.258 558.164 101.959 558.34 102.748C558.427 103.011 558.515 103.186 558.69 103.362L557.726 104.94C556.411 104.677 554.921 105.027 553.957 106.079C552.379 107.657 552.379 110.374 553.957 111.952C555.535 113.53 558.252 113.53 559.83 111.952C560.531 111.251 560.969 110.287 561.057 109.323H562.372C562.46 109.586 562.547 109.761 562.723 109.936C563.249 110.462 564.125 110.462 564.651 109.936C565.265 109.498 565.265 108.621 564.739 108.008ZM559.216 111.339C557.989 112.566 555.885 112.566 554.658 111.339C553.431 110.111 553.431 108.008 554.658 106.78C555.885 105.553 557.989 105.553 559.216 106.78C560.444 108.008 560.444 110.111 559.216 111.339Z"/><path fill="#fff" d="M564.388 92.2291C565.177 91.4402 566.492 91.4402 567.281 92.2291C568.07 93.0181 568.07 94.3329 567.281 95.1219C566.492 95.9108 565.177 95.9108 564.388 95.1219C563.599 94.3329 563.599 93.1057 564.388 92.2291Z"/><path fill="#fff" d="M569.998 97.5764C569.735 97.4887 569.472 97.4887 569.297 97.5764L568.771 96.6998C570.348 95.1219 570.348 92.4045 568.771 90.8267C567.193 89.2488 564.475 89.2488 562.898 90.8267C561.32 92.4045 561.32 95.1219 562.898 96.6998L562.372 97.5764C562.109 97.4887 561.933 97.4887 561.67 97.5764C560.969 97.7517 560.443 98.4529 560.618 99.2419C560.794 99.9431 561.495 100.469 562.284 100.294C562.985 100.118 563.511 99.4172 563.336 98.6282C563.248 98.3653 563.161 98.19 562.985 98.0146L563.511 97.2257C564.914 98.19 566.842 98.2776 568.245 97.2257L568.771 98.0146C568.595 98.19 568.508 98.3653 568.42 98.6282C568.245 99.3295 568.683 100.118 569.472 100.294C570.173 100.469 570.962 100.031 571.137 99.2419C571.225 98.4529 570.787 97.7517 569.998 97.5764ZM563.511 95.9985C562.284 94.7713 562.284 92.6675 563.511 91.4403C564.738 90.2131 566.842 90.2131 568.069 91.4403C569.297 92.6675 569.297 94.7713 568.069 95.9985C566.842 97.2257 564.826 97.2257 563.511 95.9985Z"/><path fill="#fff" d="M577.712 106.079C576.66 105.027 575.17 104.677 573.855 104.94L572.891 103.362C573.066 103.186 573.154 103.011 573.241 102.748C573.417 102.047 572.979 101.258 572.19 101.083C571.488 100.907 570.699 101.346 570.524 102.134C570.349 102.836 570.787 103.625 571.576 103.8C571.839 103.888 572.102 103.888 572.277 103.8L573.154 105.29C572.628 105.465 572.19 105.816 571.839 106.167C571.138 106.868 570.699 107.832 570.612 108.796H569.209C569.122 108.533 569.034 108.358 568.859 108.183C568.333 107.657 567.456 107.657 566.93 108.183C566.404 108.709 566.404 109.585 566.93 110.111C567.456 110.637 568.333 110.637 568.859 110.111C569.034 109.936 569.122 109.673 569.209 109.498H570.612C570.699 110.462 571.05 111.339 571.839 112.127C573.417 113.793 576.047 113.793 577.712 112.127C579.29 110.374 579.29 107.745 577.712 106.079ZM577.011 111.339C575.784 112.566 573.68 112.566 572.453 111.339C571.225 110.111 571.225 108.008 572.453 106.78C573.68 105.553 575.784 105.553 577.011 106.78C578.326 108.008 578.326 110.111 577.011 111.339Z"/><path fill="#fff" d="M573.329 142.808C574.118 142.019 575.433 142.019 576.222 142.808C577.011 143.597 577.011 144.912 576.222 145.701C575.433 146.49 574.118 146.49 573.329 145.701C572.54 144.912 572.54 143.684 573.329 142.808Z"/><path fill="#fff" d="M555.447 142.896C556.236 142.107 557.551 142.107 558.34 142.896C559.129 143.684 559.129 144.999 558.34 145.788C557.551 146.577 556.236 146.577 555.447 145.788C554.658 144.999 554.658 143.684 555.447 142.896Z"/><path fill="#fff" d="M564.739 143.334C564.213 142.808 563.336 142.808 562.81 143.334C562.635 143.509 562.547 143.772 562.46 143.947H561.057C560.969 142.983 560.531 142.107 559.83 141.405C559.392 140.967 558.953 140.704 558.427 140.529L559.304 139.126C559.567 139.214 559.742 139.214 560.005 139.126C560.707 138.951 561.232 138.25 561.057 137.461C560.882 136.759 560.181 136.233 559.392 136.409C558.69 136.584 558.164 137.285 558.34 138.074C558.427 138.337 558.515 138.513 558.69 138.688L557.726 140.266C556.411 140.003 554.921 140.353 553.957 141.405C552.379 142.983 552.379 145.7 553.957 147.278C555.535 148.856 558.252 148.856 559.83 147.278C560.531 146.577 560.969 145.613 561.057 144.649H562.372C562.46 144.912 562.547 145.087 562.723 145.262C563.249 145.788 564.125 145.788 564.651 145.262C565.265 144.736 565.265 143.86 564.739 143.334ZM559.216 146.577C557.989 147.804 555.885 147.804 554.658 146.577C553.431 145.35 553.431 143.246 554.658 142.019C555.885 140.792 557.989 140.792 559.216 142.019C560.444 143.334 560.444 145.35 559.216 146.577Z"/><path fill="#fff" d="M564.388 127.555C565.177 126.767 566.492 126.767 567.281 127.555C568.07 128.344 568.07 129.659 567.281 130.448C566.492 131.237 565.177 131.237 564.388 130.448C563.599 129.659 563.599 128.344 564.388 127.555Z"/><path fill="#fff" d="M569.998 132.815C569.735 132.727 569.472 132.727 569.297 132.815L568.771 131.938C570.348 130.36 570.348 127.643 568.771 126.065C567.193 124.487 564.475 124.487 562.898 126.065C561.32 127.643 561.32 130.36 562.898 131.938L562.372 132.815C562.109 132.727 561.933 132.727 561.67 132.815C560.969 132.99 560.443 133.691 560.618 134.48C560.794 135.269 561.495 135.708 562.284 135.532C562.985 135.357 563.511 134.656 563.336 133.867C563.248 133.604 563.161 133.428 562.985 133.253L563.511 132.464C564.914 133.428 566.842 133.516 568.245 132.464L568.771 133.253C568.595 133.428 568.508 133.604 568.42 133.867C568.245 134.568 568.683 135.357 569.472 135.532C570.173 135.708 570.962 135.269 571.137 134.48C571.225 133.779 570.787 132.99 569.998 132.815ZM563.511 131.237C562.284 130.01 562.284 127.906 563.511 126.679C564.738 125.452 566.842 125.452 568.069 126.679C569.297 127.906 569.297 130.01 568.069 131.237C566.842 132.552 564.826 132.552 563.511 131.237Z"/><path fill="#fff" d="M577.712 141.405C576.66 140.353 575.17 140.003 573.855 140.266L572.891 138.688C573.066 138.513 573.154 138.337 573.241 138.074C573.417 137.373 572.979 136.584 572.19 136.409C571.488 136.234 570.699 136.672 570.524 137.461C570.349 138.162 570.787 138.951 571.576 139.126C571.839 139.214 572.102 139.214 572.277 139.126L573.154 140.616C572.628 140.792 572.19 141.142 571.839 141.493C571.138 142.194 570.699 143.159 570.612 144.123H569.209C569.122 143.86 569.034 143.684 568.859 143.509C568.333 142.983 567.456 142.983 566.93 143.509C566.404 144.035 566.404 144.912 566.93 145.438C567.456 145.964 568.333 145.964 568.859 145.438C569.034 145.262 569.122 144.999 569.209 144.824H570.612C570.699 145.788 571.05 146.665 571.839 147.454C573.417 149.119 576.047 149.119 577.712 147.454C579.29 145.613 579.29 142.983 577.712 141.405ZM577.011 146.577C575.784 147.804 573.68 147.804 572.453 146.577C571.225 145.35 571.225 143.246 572.453 142.019C573.68 140.792 575.784 140.792 577.011 142.019C578.326 143.334 578.326 145.35 577.011 146.577Z"/><path fill="#fff" d="M573.329 71.9802C574.118 71.1913 575.433 71.1913 576.222 71.9802C577.011 72.7692 577.011 74.084 576.222 74.873C575.433 75.6619 574.118 75.6619 573.329 74.873C572.54 73.9964 572.54 72.7692 573.329 71.9802Z"/><path fill="#fff" d="M555.447 71.9802C556.236 71.1913 557.551 71.1913 558.34 71.9802C559.129 72.7692 559.129 74.084 558.34 74.873C557.551 75.6619 556.236 75.6619 555.447 74.873C554.658 74.084 554.658 72.7692 555.447 71.9802Z"/><path fill="#fff" d="M564.739 72.4186C564.213 71.8926 563.336 71.8926 562.81 72.4186C562.635 72.5939 562.547 72.8568 562.46 73.0322H561.057C560.969 72.0679 560.531 71.1913 559.83 70.4901C559.392 70.0518 558.953 69.7888 558.427 69.6135L559.304 68.211C559.567 68.2986 559.742 68.2986 560.005 68.211C560.707 68.0357 561.232 67.3344 561.057 66.5455C560.882 65.8442 560.181 65.3183 559.392 65.4936C558.603 65.6689 558.164 66.3702 558.34 67.1591C558.427 67.422 558.515 67.5974 558.69 67.7727L557.726 69.3505C556.411 69.0875 554.921 69.4382 553.957 70.4901C552.379 72.0679 552.379 74.7853 553.957 76.3632C555.535 77.941 558.252 77.941 559.83 76.3632C560.531 75.6619 560.969 74.6977 561.057 73.7334H562.372C562.46 73.9964 562.547 74.1717 562.723 74.347C563.249 74.873 564.125 74.873 564.651 74.347C565.265 73.8211 565.265 72.9445 564.739 72.4186ZM559.216 75.6619C557.989 76.8891 555.885 76.8891 554.658 75.6619C553.431 74.4347 553.431 72.3309 554.658 71.1037C555.885 69.8765 557.989 69.8765 559.216 71.1037C560.444 72.4186 560.444 74.4347 559.216 75.6619Z"/><path fill="#fff" d="M564.388 56.64C565.177 55.8511 566.492 55.8511 567.281 56.64C568.07 57.429 568.07 58.7438 567.281 59.5327C566.492 60.3217 565.177 60.3217 564.388 59.5327C563.599 58.7438 563.599 57.429 564.388 56.64Z"/><path fill="#fff" d="M569.998 61.8996C569.735 61.8119 569.472 61.8119 569.297 61.8996L568.771 61.023C570.348 59.4452 570.348 56.7278 568.771 55.1499C567.193 53.5721 564.475 53.5721 562.898 55.1499C561.32 56.7278 561.32 59.4452 562.898 61.023L562.372 61.8996C562.109 61.8119 561.933 61.8119 561.67 61.8996C560.969 62.0749 560.443 62.7762 560.618 63.5651C560.794 64.354 561.495 64.7923 562.284 64.617C562.985 64.4417 563.511 63.7404 563.336 62.9515C563.248 62.6885 563.161 62.5132 562.985 62.3379L563.511 61.549C564.914 62.5132 566.842 62.6009 568.245 61.549L568.771 62.3379C568.595 62.5132 568.508 62.6885 568.42 62.9515C568.245 63.6528 568.683 64.4417 569.472 64.617C570.173 64.7923 570.962 64.354 571.137 63.5651C571.225 62.8638 570.787 62.0749 569.998 61.8996ZM563.511 60.3218C562.284 59.0945 562.284 56.9908 563.511 55.7635C564.738 54.5363 566.842 54.5363 568.069 55.7635C569.297 56.9908 569.297 59.0945 568.069 60.3218C566.842 61.6366 564.826 61.6366 563.511 60.3218Z"/><path fill="#fff" d="M577.712 70.4901C576.66 69.4382 575.17 69.0875 573.855 69.3505L572.891 67.7727C573.066 67.5974 573.154 67.422 573.241 67.1591C573.417 66.4578 572.979 65.6689 572.19 65.4936C571.488 65.3183 570.699 65.7565 570.524 66.5455C570.349 67.2467 570.787 68.0357 571.576 68.211C571.839 68.2986 572.102 68.2986 572.277 68.211L573.154 69.7012C572.628 69.8765 572.19 70.2271 571.839 70.5777C571.138 71.279 570.699 72.2432 570.612 73.2075H569.209C569.122 72.9445 569.034 72.7692 568.859 72.5939C568.333 72.0679 567.456 72.0679 566.93 72.5939C566.404 73.1198 566.404 73.9964 566.93 74.5223C567.456 75.0483 568.333 75.0483 568.859 74.5223C569.034 74.347 569.122 74.084 569.209 73.9087H570.612C570.699 74.873 571.05 75.7496 571.839 76.5385C573.417 78.204 576.047 78.204 577.712 76.5385C579.29 74.6977 579.29 72.0679 577.712 70.4901ZM577.011 75.6619C575.784 76.8891 573.68 76.8891 572.453 75.6619C571.225 74.4347 571.225 72.3309 572.453 71.1037C573.68 69.8765 575.784 69.8765 577.011 71.1037C578.326 72.4185 578.326 74.4347 577.011 75.6619Z"/></svg>