<svg xmlns="http://www.w3.org/2000/svg" width="24" height="24" viewBox="0 0 24 24" fill="none" stroke="#9063CD" stroke-width="2" stroke-linecap="round" stroke-linejoin="round" class="lucide lucide-webhook">
  <circle cx="12" cy="12" r="3"/>
  <path d="M18 12c.6 0 1-.4 1-1V9c0-1.7-1.3-3-3-3h-2c-.6 0-1-.4-1-1V4c0-1.1-.9-2-2-2"/>
  <path d="M12 18c0 .6-.4 1-1 1H9c-1.7 0-3-1.3-3-3v-2c0-.6-.4-1-1-1H4c-1.1 0-2-.9-2-2"/>
  <path d="M18 12c0 .6.4 1 1 1h2c1.1 0 2 .9 2 2v2c0 .6-.4 1-1 1h-2c-.6 0-1 .4-1 1v2c0 1.1-.9 2-2 2"/>
</svg>
