<svg xmlns="http://www.w3.org/2000/svg" id="Layer_1" data-name="Layer 1" viewBox="16 18 147.32 89.55">
    <defs>
        <style>
            .cls-1{fill:#0e69af;}.cls-2{fill:#0db04b;}.cls-3{fill:#f27226;}.cls-4{fill:#fff;}.cls-5{fill:#1068b0;}</style>
    </defs>
    <path class="cls-1" d="M152.64,88.42A5.34,5.34,0,1,1,158,93.77a5.33,5.33,0,0,1-5.33-5.35m9.38,0A4,4,0,1,0,158,92.73,4.11,4.11,0,0,0,162,88.42m-6.1-3h2.25c1.45,0,2.24.5,2.24,1.78a1.51,1.51,0,0,1-1.59,1.62l1.62,2.65h-1.15l-1.56-2.61h-.68v2.61h-1.13ZM157.05,88h1c.66,0,1.24-.1,1.24-.9s-.65-.83-1.23-.83h-1Z"/>
    <path class="cls-2" d="M135.43,31.78A18.77,18.77,0,0,0,118,44.26c-.14.37-.62,1.91-.62,1.91l-11,47.6h25.25c8.68,0,16-6.26,18.1-14.69h0l10.92-47.31Z"/>
    <path class="cls-3" d="M93.39,18a18.54,18.54,0,0,0-17.8,13.54,17.68,17.68,0,0,0-.41,1.78L58,107.55H83.27a18.56,18.56,0,0,0,17.94-14.08h0L118.65,18Z"/>
    <path class="cls-1" d="M45,31.78A18.82,18.82,0,0,0,27.32,45.06c-.06.17-.11.34-.16.52l-.42,1.66L16,93.77H41.85A18.2,18.2,0,0,0,58.79,81.46l1-4.43L70.25,31.78Z"/>
    <path class="cls-4" d="M40.29,47.24v0h-.39a7.89,7.89,0,0,0-5.06,1.91A8.44,8.44,0,0,0,32,53.12h0L26.21,78.27h.33a7.92,7.92,0,0,0,5.1-1.93,8.2,8.2,0,0,0,3-4.65l1.27-5.46H47.41a8.13,8.13,0,0,0,5.1-1.94,8.24,8.24,0,0,0,3-4.63l.07-.33H37.49l1.2-5.19,15.65,0a7.91,7.91,0,0,0,5.06-1.9,8.4,8.4,0,0,0,3-4.63l.08-.33Z"/>
    <path class="cls-4" d="M104.17,48.76a5.25,5.25,0,0,0-3.85-1.5l-22.09,0-7.13,31h0v0h.33a7.92,7.92,0,0,0,5.1-1.93,8.2,8.2,0,0,0,3-4.65l1.28-5.52h15.3a7.21,7.21,0,0,0,5-1.46,9.64,9.64,0,0,0,3.09-5.07l1.34-5.74a7.34,7.34,0,0,0,.16-1.41A5,5,0,0,0,104.17,48.76ZM97.28,59.32H82.39l1.2-5.2,14.9,0Z"/>
    <path class="cls-4" d="M149.11,48.78a5.16,5.16,0,0,0-3.85-1.5H122l0,.22a7.54,7.54,0,0,0-.17,1.36,5.12,5.12,0,0,0,1.44,3.79,5.18,5.18,0,0,0,3.85,1.5h4.88l-5.56,24.12h.33a7.93,7.93,0,0,0,5.11-1.93,8.25,8.25,0,0,0,3-4.65l4.07-17.54h11.5l0-.22a6.62,6.62,0,0,0,.16-1.41A5,5,0,0,0,149.11,48.78Z"/>
</svg>