<svg xmlns="http://www.w3.org/2000/svg" xmlns:xlink="http://www.w3.org/1999/xlink" version="1.0" id="katman_1" x="0px" y="0px" style="enable-background:new 0 0 124.3 80.6;" xml:space="preserve" viewBox="12.1 29.7 100 21.1">
<style type="text/css">
	.st0{filter:url(#Adobe_OpacityMaskFilter);}
	.st1{fill-rule:evenodd;clip-rule:evenodd;fill:#FFFFFF;}
	.st2{mask:url(#b_1_);fill-rule:evenodd;clip-rule:evenodd;fill:#242424;}
</style>
<g>
	<defs>
		<filter id="Adobe_OpacityMaskFilter" filterUnits="userSpaceOnUse" x="12.1" y="29.8" width="100" height="21">
			<feColorMatrix type="matrix" values="1 0 0 0 0  0 1 0 0 0  0 0 1 0 0  0 0 0 1 0"/>
		</filter>
	</defs>
	<mask maskUnits="userSpaceOnUse" x="12.1" y="29.8" width="100" height="21" id="b_1_">
		<g class="st0">
			<path id="a_1_" class="st1" d="M12.1,29.8h100v21h-100V29.8z"/>
		</g>
	</mask>
	<path class="st2" d="M38.3,47.3c-2.3,0-4.4-0.8-4.4-6.9c0-3.6,0.5-6.9,4.4-6.9c2.3,0,4.4,0.8,4.4,6.9   C42.7,43.9,42.1,47.3,38.3,47.3 M38.3,29.8c-5.9,0-9.3,3.8-9.3,10.5c0,6.6,3.5,10.5,9.3,10.5s9.3-3.9,9.3-10.5   C47.5,33.6,44.2,29.8,38.3,29.8 M93.5,30.2H89c-0.1,0-0.3,0.1-0.3,0.3V50c0,0.1,0.1,0.3,0.3,0.3c0,0,0,0,0,0h4.5   c0.1,0,0.3-0.1,0.3-0.3c0,0,0,0,0,0V30.5C93.7,30.4,93.6,30.3,93.5,30.2 M25.6,30.3H12.4c-0.1,0-0.3,0.1-0.3,0.3c0,0,0,0,0,0V50   c0,0.1,0.1,0.3,0.3,0.3h4.4c0.1,0,0.3-0.1,0.3-0.3c0,0,0,0,0,0v-7.3h7.6c0.1,0,0.3-0.1,0.3-0.3v-3c0-0.2-0.1-0.3-0.3-0.3l-7.6,0   v-5.4h8.7c0.1,0,0.3-0.1,0.3-0.3l0,0l-0.1-3C25.8,30.4,25.7,30.3,25.6,30.3 M60.8,38.7c-3.9-1.3-5.3-2.4-5.1-4   c0.2-1.6,1.8-1.6,3.9-1.4c1.5,0.1,2.9,0.4,4.3,0.9c0.1,0,0.1,0,0.2,0c0.1,0,0.1-0.1,0.1-0.2c0.1-0.3,0.2-1,0.3-1.6   c0.1-0.5,0.2-1.1,0.3-1.4c0-0.1-0.1-0.2-0.2-0.3c-2.2-0.7-4.4-1-6.7-1c-4.5,0.1-6.8,2-7.1,6c-0.1,2.1,1.2,4.9,4.7,6l0.6,0.2   c2.8,1,4.7,1.6,4.4,3.3c-0.2,1.3-1.5,1.8-4.3,1.7c-1.6-0.1-3.1-0.4-4.6-0.9c-0.1,0-0.1,0-0.2,0c-0.1,0-0.1,0.1-0.1,0.2   c-0.1,0.7-0.3,2.5-0.4,3.1c0,0.1,0.1,0.3,0.2,0.3c2.4,0.6,4.9,0.9,7.3,0.9c4.4,0,6.8-1.9,7-5.7C65.8,41.9,64.2,39.8,60.8,38.7    M79.3,38.7c-3.9-1.3-5.3-2.4-5.1-4c0.2-1.6,1.8-1.6,3.9-1.4c1.5,0.1,2.9,0.4,4.3,0.9c0.1,0,0.1,0,0.2,0c0.1,0,0.1-0.1,0.1-0.2   c0.1-0.4,0.2-1.1,0.3-1.8c0.1-0.5,0.2-0.9,0.2-1.2c0-0.1-0.1-0.3-0.2-0.3c-2.2-0.7-4.4-1-6.7-1c-4.5,0.1-6.8,2-7,6   c-0.1,2.1,1.2,4.9,4.7,6l0.6,0.2c2.8,1,4.7,1.6,4.4,3.3c-0.2,1.3-1.5,1.8-4.3,1.6c-1.6-0.1-3.1-0.4-4.6-0.9c-0.1,0-0.1,0-0.2,0   c-0.1,0-0.1,0.1-0.1,0.2c-0.1,0.4-0.2,1.3-0.3,2c-0.1,0.5-0.1,0.9-0.1,1.1c0,0.1,0.1,0.3,0.2,0.3c2.4,0.6,4.9,0.9,7.4,0.9   c4.4,0,6.8-1.9,7-5.7C84.3,41.9,82.7,39.8,79.3,38.7 M111.9,46.7h-7.5V30.5c0-0.1-0.1-0.3-0.3-0.3h-4.5c-0.2,0-0.3,0.1-0.3,0.3   c0,0,0,0,0,0V50c0,0.1,0.1,0.3,0.3,0.3c0,0,0,0,0,0h12.1c0.1,0,0.3-0.1,0.3-0.3l0.1-3.1C112.1,46.8,112,46.7,111.9,46.7"/>
</g>
</svg>