<svg version="1.2" xmlns="http://www.w3.org/2000/svg" viewBox="0 0 1585 1692" width="1585" height="1692">
	<title>logo (9)dfdfdf-svg</title>
	<style>
		.s0 { fill: #f37735 } 
		.s1 { fill: #000000 } 
	</style>
	<g id="#f37735fe">
		<path id="Layer" class="s0" d="m669.1 129.7c-13-90.3 98.1-157.4 175.8-117.3c80.8 31.6 96.9 151.7 34.7 208.5c-24 24.4-59.1 28.4-90.4 37.2c-62.4-8.8-130-58.2-120.1-128.4z" />
	</g>
	<g id="#000000ff">
		<path id="Layer" class="s1" d="m333 507.8c219.6-161.4 525.5-192.8 774.3-82.4c243.3 104.1 427.5 338.2 465.4 601.1c-81.6-0.4-163.1-0.4-244.9-0.4c-33.9-160.4-129.2-308.4-268.4-397.1c-130.7-82.2-299.9-101.2-444.1-44.1c-188.8 70-315.4 250.6-360 441.9c-81.6-0.8-163.2-0.5-244.6-0.7c35.9-205.4 150.4-398.2 322.3-518.3z" />
		<path id="Layer" class="s1" d="m310 1439.3c166.5-267.6 319.9-543 487.4-809.7c158.4 269.3 316.3 538.9 476.1 807.4c49.5-103.8 69.4-219 64.5-333.4c81.7 0.7 163.5 0.4 245.2 0.1c11.9 197.3-50.4 399.8-182.4 548c-46 50.8-130.7 50.1-177.9 1.6c-85.1-79.9-163-167.2-248.3-246.8c-96.1-95.2-264.5-97-363.2-4.9c-84.8 80.2-161.8 168.2-244.4 250.6c-46.3 50.1-132.7 53.7-180 3.4c-132.4-149.8-196.2-352.4-184.8-551.3c80.7-0.6 161.5 0 242.1-0.7c0.8 115 19.6 229.8 65.7 335.7z" />
	</g>
</svg>