<svg xmlns="http://www.w3.org/2000/svg" viewBox="0 0 800 440" font-family="Inter, ui-sans-serif, system-ui, sans-serif" role="img">
<title>Merged PRs per quarter for duyet/clickhouse-monitoring.</title>
<rect width="800" height="440" fill="#f8f8f2"/>
<text x="60" y="34" font-size="15" font-weight="700" fill="#1a1a1a">Merged PRs / quarter — duyet/clickhouse-monitoring</text>
<text x="60" y="52" font-size="11" fill="#1a1a1a" fill-opacity="0.55">~1,710 PRs total. Latest quarter partial.</text>
<line x1="64" y1="350" x2="740" y2="350" stroke="#1a1a1a" stroke-opacity="0.25"/>
<rect x="81.6" y="326.5" width="37.8" height="23.5" fill="#1a1a1a"/>
<text x="100.5" y="320.5" font-size="9.5" fill="#1a1a1a" fill-opacity="0.7" text-anchor="middle">66</text>
<text x="100.5" y="366" font-size="8.5" fill="#1a1a1a" fill-opacity="0.5" text-anchor="middle">Q4</text>
<rect x="142.5" y="317.9" width="37.8" height="32.1" fill="#1a1a1a"/>
<text x="161.4" y="311.9" font-size="9.5" fill="#1a1a1a" fill-opacity="0.7" text-anchor="middle">90</text>
<text x="161.4" y="366" font-size="8.5" fill="#1a1a1a" fill-opacity="0.5" text-anchor="middle">Q1</text>
<rect x="203.4" y="324.0" width="37.8" height="26.0" fill="#1a1a1a"/>
<text x="222.3" y="318.0" font-size="9.5" fill="#1a1a1a" fill-opacity="0.7" text-anchor="middle">73</text>
<text x="222.3" y="366" font-size="8.5" fill="#1a1a1a" fill-opacity="0.5" text-anchor="middle">Q2</text>
<rect x="264.3" y="317.6" width="37.8" height="32.4" fill="#1a1a1a"/>
<text x="283.2" y="311.6" font-size="9.5" fill="#1a1a1a" fill-opacity="0.7" text-anchor="middle">91</text>
<text x="283.2" y="366" font-size="8.5" fill="#1a1a1a" fill-opacity="0.5" text-anchor="middle">Q3</text>
<rect x="325.2" y="326.8" width="37.8" height="23.2" fill="#1a1a1a"/>
<text x="344.1" y="320.8" font-size="9.5" fill="#1a1a1a" fill-opacity="0.7" text-anchor="middle">65</text>
<text x="344.1" y="366" font-size="8.5" fill="#1a1a1a" fill-opacity="0.5" text-anchor="middle">Q4</text>
<rect x="386.1" y="342.2" width="37.8" height="7.8" fill="#1a1a1a"/>
<text x="405.0" y="336.2" font-size="9.5" fill="#1a1a1a" fill-opacity="0.7" text-anchor="middle">22</text>
<text x="405.0" y="366" font-size="8.5" fill="#1a1a1a" fill-opacity="0.5" text-anchor="middle">Q1</text>
<rect x="447.0" y="345.0" width="37.8" height="5.0" fill="#1a1a1a"/>
<text x="465.9" y="339.0" font-size="9.5" fill="#1a1a1a" fill-opacity="0.7" text-anchor="middle">14</text>
<text x="465.9" y="366" font-size="8.5" fill="#1a1a1a" fill-opacity="0.5" text-anchor="middle">Q2</text>
<rect x="507.9" y="342.2" width="37.8" height="7.8" fill="#1a1a1a"/>
<text x="526.8" y="336.2" font-size="9.5" fill="#1a1a1a" fill-opacity="0.7" text-anchor="middle">22</text>
<text x="526.8" y="366" font-size="8.5" fill="#1a1a1a" fill-opacity="0.5" text-anchor="middle">Q3</text>
<rect x="568.8" y="337.5" width="37.8" height="12.5" fill="#1a1a1a"/>
<text x="587.7" y="331.5" font-size="9.5" fill="#1a1a1a" fill-opacity="0.7" text-anchor="middle">35</text>
<text x="587.7" y="366" font-size="8.5" fill="#1a1a1a" fill-opacity="0.5" text-anchor="middle">Q4</text>
<rect x="629.8" y="283.0" width="37.8" height="67.0" fill="#d97441"/>
<text x="648.6" y="277.0" font-size="9.5" fill="#1a1a1a" fill-opacity="0.7" text-anchor="middle">188</text>
<text x="648.6" y="366" font-size="8.5" fill="#1a1a1a" fill-opacity="0.5" text-anchor="middle">Q1</text>
<rect x="690.7" y="80.0" width="37.8" height="270.0" fill="#d97441"/>
<text x="709.5" y="74.0" font-size="9.5" fill="#1a1a1a" fill-opacity="0.7" text-anchor="middle">758</text>
<text x="709.5" y="366" font-size="8.5" fill="#1a1a1a" fill-opacity="0.5" text-anchor="middle">Q2</text>
<text x="100.5" y="386" font-size="11" font-weight="600" fill="#1a1a1a" fill-opacity="0.8" text-anchor="middle">2023</text>
<text x="252.7" y="386" font-size="11" font-weight="600" fill="#1a1a1a" fill-opacity="0.8" text-anchor="middle">2024</text>
<text x="496.4" y="386" font-size="11" font-weight="600" fill="#1a1a1a" fill-opacity="0.8" text-anchor="middle">2025</text>
<text x="679.1" y="386" font-size="11" font-weight="600" fill="#1a1a1a" fill-opacity="0.8" text-anchor="middle">2026</text>
</svg>